<?xml version="1.0" standalone="no"?>
<!DOCTYPE svg PUBLIC "-//W3C//DTD SVG 20010904//EN"
 "http://www.w3.org/TR/2001/REC-SVG-20010904/DTD/svg10.dtd">
<svg version="1.0" xmlns="http://www.w3.org/2000/svg"
 width="700.000000pt" height="700.000000pt" viewBox="0 0 700.000000 700.000000"
 preserveAspectRatio="xMidYMid meet">
<metadata>
Created by potrace 1.14, written by Peter Selinger 2001-2017
</metadata>
<g transform="translate(0.000000,700.000000) scale(0.100000,-0.100000)"
fill="#000000" stroke="none">
<path d="M2727 6344 c-1 -1 -32 -4 -69 -8 -37 -3 -78 -10 -92 -16 -14 -5 -26
-8 -26 -5 0 2 -33 -8 -72 -21 -227 -79 -395 -221 -530 -444 -29 -50 -76 -177
-94 -255 -12 -55 -18 -124 -18 -220 -1 -125 1 -144 21 -180 73 -137 248 -162
351 -51 49 54 62 95 62 208 0 48 5 111 11 140 47 237 254 410 493 411 93 1
144 -11 231 -53 175 -84 282 -255 283 -453 0 -142 -47 -255 -148 -357 -73 -74
-138 -112 -231 -137 -58 -15 -161 -17 -1069 -18 -1111 -1 -1041 3 -1109 -66
-43 -43 -63 -91 -63 -151 1 -93 66 -184 149 -208 27 -8 344 -10 1083 -8 1021
4 1047 4 1115 24 285 84 506 266 621 512 61 129 87 248 88 392 0 69 -3 143 -7
165 -4 22 -10 52 -12 67 -11 62 -69 201 -117 278 -150 244 -407 410 -688 446
-44 5 -159 11 -163 8z"/>
<path d="M5195 6035 c-114 -21 -117 -22 -200 -50 -361 -122 -651 -415 -773
-780 -51 -153 -65 -248 -65 -450 -1 -136 10 -180 56 -232 105 -119 301 -86
362 60 11 28 17 82 20 195 5 170 20 247 70 362 176 401 663 585 1060 400 165
-76 280 -181 371 -337 116 -196 132 -491 38 -700 -8 -17 -14 -34 -14 -38 0 -3
-23 -42 -51 -86 -110 -171 -304 -306 -504 -349 -88 -19 -151 -19 -2550 -20
-1682 0 -2472 -3 -2498 -11 -21 -5 -53 -24 -73 -41 -115 -102 -101 -272 30
-353 l49 -30 2486 0 c1367 0 2511 3 2541 7 31 4 85 14 120 23 36 9 73 18 82
20 43 10 205 80 261 113 261 153 461 397 556 677 71 211 83 431 36 678 -29
149 -140 372 -254 507 -73 88 -189 196 -240 224 -9 5 -18 12 -21 16 -15 18
-196 112 -264 137 -136 48 -230 65 -396 68 -109 2 -189 -1 -235 -10z"/>
<path d="M1115 3128 c-41 -9 -90 -40 -120 -77 -69 -85 -56 -227 28 -297 71
-60 -97 -56 2297 -58 2100 -2 2198 -2 2265 -20 204 -54 392 -191 493 -359 37
-62 88 -180 96 -224 3 -15 8 -39 11 -53 11 -42 13 -205 3 -267 -24 -161 -104
-319 -223 -439 -98 -101 -269 -198 -386 -220 -145 -26 -263 -25 -381 6 -308
80 -536 327 -593 645 -4 22 -9 105 -11 184 -3 126 -6 149 -26 190 -80 161
-307 159 -387 -3 -22 -45 -25 -62 -25 -175 0 -118 7 -224 19 -281 2 -14 7 -37
11 -52 3 -15 6 -31 6 -35 1 -5 11 -37 23 -73 105 -307 295 -542 566 -701 37
-21 70 -39 73 -39 3 0 29 -11 58 -25 118 -55 304 -94 459 -97 78 -2 225 9 239
17 3 2 25 6 48 10 67 10 188 53 285 101 504 250 777 800 668 1349 -27 131 -48
192 -112 321 -65 128 -130 217 -240 326 -101 99 -218 180 -343 238 -89 41
-222 84 -293 95 -21 3 -50 8 -63 11 -37 9 -4402 10 -4445 2z"/>
</g>
</svg>
